<mxfile host="app.diagrams.net" modified="2023-10-06T14:51:50.729Z" agent="Mozilla/5.0 (Windows NT 10.0; Win64; x64) AppleWebKit/537.36 (KHTML, like Gecko) Chrome/117.0.0.0 Safari/537.36" version="21.8.2" etag="DONd8_HVAspRFPiT2Bdi" type="github">
  <diagram name="第 1 页" id="YeSX9-g7Z1W7M2vIz-MN">
    <mxGraphModel>
      <root>
        <mxCell id="0" />
        <mxCell id="1" parent="0" />
      </root>
    </mxGraphModel>
  </diagram>
</mxfile>
